<svg width="16" height="17" viewBox="0 0 16 17" fill="none" xmlns="http://www.w3.org/2000/svg">
<path fill-rule="evenodd" clip-rule="evenodd" d="M5.418 7.00005H2.582C2.16587 6.99659 1.76541 7.15859 1.46873 7.4504C1.17204 7.74221 1.00343 8.13993 1 8.55605V14.4451C1.0077 15.3112 1.71584 16.0073 2.582 16.0001H5.418C5.83413 16.0035 6.23459 15.8415 6.53127 15.5497C6.82796 15.2579 6.99657 14.8602 7 14.4441V8.55605C6.99657 8.13993 6.82796 7.74221 6.53127 7.4504C6.23459 7.15859 5.83413 6.99659 5.418 7.00005Z" stroke="black" stroke-linecap="round" stroke-linejoin="round"/>
<path fill-rule="evenodd" clip-rule="evenodd" d="M5.418 1.0006H2.582C1.73326 0.977062 1.02559 1.64492 1 2.4936V3.5076C1.02559 4.35629 1.73326 5.02415 2.582 5.0006H5.418C6.26674 5.02415 6.97441 4.35629 7 3.5076V2.4936C6.97441 1.64492 6.26674 0.977062 5.418 1.0006Z" stroke="black" stroke-linecap="round" stroke-linejoin="round"/>
<path fill-rule="evenodd" clip-rule="evenodd" d="M10.582 10.001H13.417C13.8333 10.0048 14.234 9.84288 14.5309 9.55105C14.8278 9.25921 14.9966 8.86133 15 8.44503V2.55703C14.9966 2.1409 14.828 1.74318 14.5313 1.45137C14.2346 1.15956 13.8341 0.997569 13.418 1.00103H10.582C10.1659 0.997569 9.76541 1.15956 9.46873 1.45137C9.17204 1.74318 9.00343 2.1409 9 2.55703V8.44503C9.00343 8.86116 9.17204 9.25888 9.46873 9.55069C9.76541 9.8425 10.1659 10.0045 10.582 10.001Z" stroke="black" stroke-linecap="round" stroke-linejoin="round"/>
<path fill-rule="evenodd" clip-rule="evenodd" d="M10.582 16.0006H13.417C14.2661 16.0247 14.9744 15.3567 15 14.5076V13.4936C14.9744 12.6449 14.2667 11.9771 13.418 12.0006H10.582C9.73326 11.9771 9.02559 12.6449 9 13.4936V14.5066C9.02505 15.3557 9.73288 16.0241 10.582 16.0006Z" stroke="black" stroke-linecap="round" stroke-linejoin="round"/>
</svg>
