<svg width="14" height="17" viewBox="0 0 14 17" fill="none" xmlns="http://www.w3.org/2000/svg">
<path d="M3.5 12.6667H10.1667M3.5 9.33333H8.5M4.33333 2.25H3C1.89543 2.25 1 3.14543 1 4.25V14C1 15.1046 1.89543 16 3 16H10.6667C11.7712 16 12.6667 15.1046 12.6667 14V4.25C12.6667 3.14543 11.7712 2.25 10.6667 2.25H9.33333M4.33333 2.25V2.25C4.33333 2.94036 4.89298 3.5 5.58333 3.5H8.08333C8.77369 3.5 9.33333 2.94036 9.33333 2.25V2.25M4.33333 2.25V2.25C4.33333 1.55964 4.89298 1 5.58333 1H8.08333C8.77369 1 9.33333 1.55964 9.33333 2.25V2.25" stroke="black" stroke-width="1.5" stroke-linecap="round" stroke-linejoin="round"/>
</svg>
